HIERARCHY
ROOT hip
{
  OFFSET 0.0 0.0 0.0
  CHANNELS 6 Xposition Yposition Zposition Zrotation Yrotation Xrotation
  JOINT abdomen
  {
    OFFSET 0.0 20.6881 -0.73152
    CHANNELS 3 Zrotation Xrotation Yrotation
    JOINT chest
    {
      OFFSET 0.0 11.7043 -0.48768
      CHANNELS 3 Zrotation Xrotation Yrotation
      JOINT neck
      {
        OFFSET 0.0 22.1894 -2.19456
        CHANNELS 3 Zrotation Xrotation Yrotation
        JOINT head
        {
          OFFSET -0.24384 7.07133 1.2192
          CHANNELS 3 Zrotation Xrotation Yrotation
          JOINT leftEye
          {
            OFFSET 4.14528 8.04674 8.04672
            CHANNELS 3 Zrotation Xrotation Yrotation
            End Site
            {
              OFFSET 1.0 0.0 0.0
            }
          }
          JOINT rightEye
          {
            OFFSET -3.6576 8.04674 8.04672
            CHANNELS 3 Zrotation Xrotation Yrotation
            End Site
            {
              OFFSET 1.0 0.0 0.0
            }
          }
        }
      }
      JOINT rCollar
      {
        OFFSET -2.68224 19.2634 -4.8768
        CHANNELS 3 Zrotation Xrotation Yrotation
        JOINT rShldr
        {
          OFFSET -8.77824 -1.95073 1.46304
          CHANNELS 3 Zrotation Xrotation Yrotation
          JOINT rForeArm
          {
            OFFSET -28.1742 -1.7115 0.48768
            CHANNELS 3 Zrotation Xrotation Yrotation
            JOINT rHand
            {
              OFFSET -22.5879 0.773209 7.07136
              CHANNELS 3 Zrotation Xrotation Yrotation
              JOINT rThumb1
              {
                OFFSET -1.2192 -0.487915 3.41376
                CHANNELS 3 Zrotation Xrotation Yrotation
                JOINT rThumb2
                {
                  OFFSET -3.37035 -0.52449 3.41376
                  CHANNELS 3 Zrotation Xrotation Yrotation
                  End Site
                  {
                    OFFSET -1.78271 -1.18214 1.43049
                  }
                }
              }
              JOINT rIndex1
              {
                OFFSET -7.75947 0.938293 5.60832
                CHANNELS 3 Zrotation Xrotation Yrotation
                JOINT rIndex2
                {
                  OFFSET -2.54057 -0.884171 1.56538
                  CHANNELS 3 Zrotation Xrotation Yrotation
                  End Site
                  {
                    OFFSET -1.62519 -0.234802 1.16502
                  }
                }
              }
              JOINT rMid1
              {
                OFFSET -8.24714 1.18213 3.41376
                CHANNELS 3 Zrotation Xrotation Yrotation
                JOINT rMid2
                {
                  OFFSET -3.10165 -0.590103 1.0647
                  CHANNELS 3 Zrotation Xrotation Yrotation
                  End Site
                  {
                    OFFSET -2.48547 -0.328903 0.83742
                  }
                }
              }
              JOINT rRing1
              {
                OFFSET -8.82822 0.546677 1.51678
                CHANNELS 3 Zrotation Xrotation Yrotation
                JOINT rRing2
                {
                  OFFSET -2.60934 -0.819778 -0.0198488
                  CHANNELS 3 Zrotation Xrotation Yrotation
                  End Site
                  {
                    OFFSET -2.33842 -0.294052 0.168128
                  }
                }
              }
              JOINT rPinky1
              {
                OFFSET -8.27202 -0.0477905 -0.4584
                CHANNELS 3 Zrotation Xrotation Yrotation
                JOINT rPinky2
                {
                  OFFSET -1.82734 -0.647385 -0.700984
                  CHANNELS 3 Zrotation Xrotation Yrotation
                  End Site
                  {
                    OFFSET -1.69225 -0.51767 -0.607171
                  }
                }
              }
            }
          }
        }
      }
      JOINT lCollar
      {
        OFFSET 2.68224 19.2634 -4.8768
        CHANNELS 3 Zrotation Xrotation Yrotation
        JOINT lShldr
        {
          OFFSET 8.77824 -1.95073 1.46304
          CHANNELS 3 Zrotation Xrotation Yrotation
          JOINT lForeArm
          {
            OFFSET 28.1742 -1.7115 0.48768
            CHANNELS 3 Zrotation Xrotation Yrotation
            JOINT lHand
            {
              OFFSET 22.5879 0.773209 7.07136
              CHANNELS 3 Zrotation Xrotation Yrotation
              JOINT lThumb1
              {
                OFFSET 1.2192 -0.487915 3.41376
                CHANNELS 3 Zrotation Xrotation Yrotation
                JOINT lThumb2
                {
                  OFFSET 3.37035 -0.52449 3.41376
                  CHANNELS 3 Zrotation Xrotation Yrotation
                  End Site
                  {
                    OFFSET 1.78271 -1.18214 1.43049
                  }
                }
              }
              JOINT lIndex1
              {
                OFFSET 7.75947 0.938293 5.60832
                CHANNELS 3 Zrotation Xrotation Yrotation
                JOINT lIndex2
                {
                  OFFSET 2.54057 -0.884171 1.56538
                  CHANNELS 3 Zrotation Xrotation Yrotation
                  End Site
                  {
                    OFFSET 1.62519 -0.234802 1.16502
                  }
                }
              }
              JOINT lMid1
              {
                OFFSET 8.24714 1.18213 3.41376
                CHANNELS 3 Zrotation Xrotation Yrotation
                JOINT lMid2
                {
                  OFFSET 3.10165 -0.590103 1.0647
                  CHANNELS 3 Zrotation Xrotation Yrotation
                  End Site
                  {
                    OFFSET 2.48547 -0.328903 0.83742
                  }
                }
              }
              JOINT lRing1
              {
                OFFSET 8.82822 0.546677 1.51678
                CHANNELS 3 Zrotation Xrotation Yrotation
                JOINT lRing2
                {
                  OFFSET 2.60934 -0.819778 -0.0198488
                  CHANNELS 3 Zrotation Xrotation Yrotation
                  End Site
                  {
                    OFFSET 2.33842 -0.294052 0.168128
                  }
                }
              }
              JOINT lPinky1
              {
                OFFSET 8.27202 -0.0477905 -0.4584
                CHANNELS 3 Zrotation Xrotation Yrotation
                JOINT lPinky2
                {
                  OFFSET 1.82734 -0.647385 -0.700984
                  CHANNELS 3 Zrotation Xrotation Yrotation
                  End Site
                  {
                    OFFSET 1.69225 -0.51767 -0.607171
                  }
                }
              }
            }
          }
        }
      }
    }
  }
  JOINT rButtock
  {
    OFFSET -8.77824 4.35084 1.2192
    CHANNELS 3 Zrotation Xrotation Yrotation
    JOINT rThigh
    {
      OFFSET 0.0 -1.70687 -2.19456
      CHANNELS 3 Zrotation Xrotation Yrotation
      JOINT rShin
      {
        OFFSET 0.0 -36.8199 0.73152
        CHANNELS 3 Zrotation Xrotation Yrotation
        JOINT rFoot
        {
          OFFSET 0.73152 -45.1104 -5.12064
          CHANNELS 3 Zrotation Xrotation Yrotation
          End Site
          {
            OFFSET -1.1221 -3.69964 12.103
          }
        }
      }
    }
  }
  JOINT lButtock
  {
    OFFSET 8.77824 4.35084 1.2192
    CHANNELS 3 Zrotation Xrotation Yrotation
    JOINT lThigh
    {
      OFFSET 0.0 -1.70687 -2.19456
      CHANNELS 3 Zrotation Xrotation Yrotation
      JOINT lShin
      {
        OFFSET 0.0 -36.8199 0.73152
        CHANNELS 3 Zrotation Xrotation Yrotation
        JOINT lFoot
        {
          OFFSET -0.73152 -45.1104 -5.12064
          CHANNELS 3 Zrotation Xrotation Yrotation
          End Site
          {
            OFFSET 1.1221 -3.69964 12.103
          }
        }
      }
    }
  }
}
MOTION
Frames: 7
Frame Time: 0.00833333
68.9593 77.8278 -34.9167 -794.998 -86.2563 814.322 1.3815 30.9863 -1.34125 -2.28493 -8.93017 -0.499117 2.04649 16.1249 -0.125682 1.95334 -38.7187 0.335578 -0.0 0.0 0.0 -0.0 0.0 0.0 1.60002e-14 2.62052e-12 7.48797e-14 82.2314 22.5791 1.80849 -12.3411 -5.69094 22.272 -0.00553752 2.13938 0.300808 -1.15852e-09 -5.06404e-10 2.24265e-09 -1.9965e-09 -8.77341e-10 3.88372e-09 -1.15851e-09 -5.06406e-10 2.24264e-09 7.73091 5.47488 0.417314 -1.15852e-09 -5.06409e-10 2.24266e-09 2.90554 0.965183 0.102902 -1.15851e-09 -5.06407e-10 2.24265e-09 10.2786 0.731801 0.0259123 -1.15852e-09 -5.06404e-10 2.24265e-09 2.22167 -0.733487 -0.20892 1.59058e-14 2.62052e-12 7.4625e-14 -78.872 26.5805 -1.2353 13.1449 -6.28448 -23.8493 0.817372 -24.7785 3.71968 -7.07224e-10 5.75076e-10 -1.58027e-09 -1.19918e-09 9.91501e-10 -2.74337e-09 -7.07231e-10 5.75076e-10 -1.58025e-09 -7.73091 5.47488 -0.417314 -7.07226e-10 5.75075e-10 -1.58026e-09 -2.90554 0.965183 -0.102902 -7.07235e-10 5.75075e-10 -1.58026e-09 -10.2786 0.731801 -0.0259123 -7.0722e-10 5.75075e-10 -1.58026e-09 -2.22167 -0.733487 0.20892 -2.03217e-16 0.0 -3.88251e-19 8.04351 -25.1342 0.297256 -0.506785 43.4687 0.377139 -3.32358 -22.1026 -6.83156 2.03217e-16 0.0 3.88251e-19 -2.18821 -58.7254 0.0876538 0.16351 29.1979 0.504822 0.799856 -5.18833 2.40709
68.1539 77.9017 -34.8101 -790.946 -86.3923 810.588 1.26731 31.0141 -1.35527 -2.29182 -9.0736 -0.517903 2.03779 16.1353 -0.197616 2.06238 -38.9744 0.225227 -0.0 0.0 0.0 -0.0 0.0 0.0 5.09516e-14 3.44039e-12 1.1186e-13 82.3071 22.5652 1.73477 -12.3916 -5.7272 22.3703 -0.00475357 1.97921 0.278269 -8.87295e-10 -5.4721e-10 1.72551e-09 -1.53002e-09 -9.47675e-10 2.98826e-09 -8.87285e-10 -5.47209e-10 1.7255e-09 7.73091 5.47488 0.417314 -8.87294e-10 -5.47212e-10 1.72551e-09 2.90554 0.965183 0.102902 -8.87287e-10 -5.47211e-10 1.72551e-09 10.2786 0.731801 0.0259123 -8.87296e-10 -5.47208e-10 1.72551e-09 2.22167 -0.733487 -0.20892 5.08295e-14 3.44039e-12 1.11639e-13 -78.6418 26.7458 -1.55024 13.1972 -6.32425 -23.9529 0.81162 -24.6977 3.70589 -3.42574e-10 5.91786e-10 -1.00843e-09 -5.78696e-10 1.02417e-09 -1.74834e-09 -3.42582e-10 5.91786e-10 -1.00842e-09 -7.73091 5.47488 -0.417314 -3.42577e-10 5.91784e-10 -1.00843e-09 -2.90554 0.965183 -0.102902 -3.42588e-10 5.91784e-10 -1.00843e-09 -10.2786 0.731801 -0.0259123 -3.4257e-10 5.91785e-10 -1.00843e-09 -2.22167 -0.733487 0.20892 -2.03217e-16 0.0 -3.88251e-19 7.58185 -25.3522 0.160064 -0.52182 44.1022 0.398974 -2.97314 -21.2557 -6.25151 2.03217e-16 0.0 3.88251e-19 -2.19259 -58.9543 0.935954 0.184227 29.9505 0.491343 0.760089 -4.77055 2.22732
67.3481 77.9818 -34.7346 -787.629 -86.3809 807.612 1.27247 30.9876 -1.36129 -2.31896 -9.15648 -0.52589 2.02784 16.1488 -0.255064 2.128 -39.1694 0.12995 -0.0 0.0 0.0 -0.0 0.0 0.0 7.79937e-14 3.65147e-12 1.26924e-13 82.3106 22.635 1.72976 -12.4312 -5.75568 22.4476 -0.00428941 1.86972 0.262866 -6.57169e-10 -5.242e-10 1.07418e-09 -1.1345e-09 -9.07759e-10 1.86095e-09 -6.5716e-10 -5.24197e-10 1.07417e-09 7.73091 5.47488 0.417314 -6.57167e-10 -5.242e-10 1.07418e-09 2.90554 0.965183 0.102902 -6.57162e-10 -5.242e-10 1.07418e-09 10.2786 0.731801 0.0259123 -6.57172e-10 -5.24198e-10 1.07418e-09 2.22167 -0.733487 -0.20892 7.78586e-14 3.65146e-12 1.26725e-13 -78.4666 26.8741 -1.8368 13.2675 -6.37824 -24.0915 0.81147 -24.696 3.70559 -8.92336e-11 5.40998e-10 -4.20431e-10 -1.5012e-10 9.38699e-10 -7.27611e-10 -8.92416e-11 5.40998e-10 -4.20412e-10 -7.73091 5.47488 -0.417314 -8.92359e-11 5.40996e-10 -4.20425e-10 -2.90554 0.965183 -0.102902 -8.92479e-11 5.40996e-10 -4.20426e-10 -10.2786 0.731801 -0.0259123 -8.92289e-11 5.40996e-10 -4.20425e-10 -2.22167 -0.733487 0.20892 -2.03217e-16 0.0 -3.88251e-19 7.19352 -25.6163 -0.0274032 -0.538998 44.7622 0.419074 -2.6023 -20.2314 -5.62596 2.03217e-16 0.0 3.88251e-19 -2.02036 -59.1572 1.84247 0.202462 30.6359 0.479087 0.701776 -4.32496 1.87079
66.5359 78.0729 -34.6814 -785.381 -86.2505 805.71 1.46569 30.8787 -1.35162 -2.3788 -9.15328 -0.516476 2.01228 16.1742 -0.296449 2.14757 -39.304 0.0528342 -0.0 0.0 0.0 -0.0 0.0 0.0 1.0398e-13 2.85248e-12 1.08032e-13 82.2118 22.8394 1.82191 -12.4511 -5.77002 22.4866 -0.00409169 1.81859 0.255675 -4.73266e-10 -3.96935e-10 9.21115e-11 -8.19051e-10 -6.87784e-10 1.62016e-10 -4.73257e-10 -3.96932e-10 9.21005e-11 7.73091 5.47488 0.417314 -4.73263e-10 -3.96935e-10 9.21114e-11 2.90554 0.965183 0.102902 -4.73259e-10 -3.96935e-10 9.21076e-11 10.2786 0.731801 0.0259123 -4.7327e-10 -3.96934e-10 9.21108e-11 2.22167 -0.733487 -0.20892 1.03856e-13 2.85247e-12 1.07842e-13 -78.3587 26.9401 -2.10236 13.3612 -6.45063 -24.2768 0.817662 -24.782 3.72029 -4.91263e-12 3.63999e-10 2.89362e-10 -1.42749e-11 6.32705e-10 5.00108e-10 -4.91917e-12 3.63999e-10 2.89377e-10 -7.73091 5.47488 -0.417314 -4.91391e-12 3.63996e-10 2.89362e-10 -2.90554 0.965183 -0.102902 -4.92449e-12 3.63997e-10 2.89366e-10 -10.2786 0.731801 -0.0259123 -4.90763e-12 3.63998e-10 2.89365e-10 -2.22167 -0.733487 0.20892 -2.03217e-16 0.0 -3.88251e-19 6.93208 -25.9148 -0.291848 -0.557296 45.4111 0.434885 -2.19702 -18.9928 -4.90916 2.03217e-16 0.0 3.88251e-19 -1.52692 -59.3494 2.94272 0.217484 31.2435 0.468223 0.61604 -3.81575 1.21261
65.7165 78.1718 -34.6342 -784.044 -86.0562 804.72 1.80333 30.7112 -1.3275 -2.46595 -9.08982 -0.493064 1.99252 16.2118 -0.330694 2.13886 -39.4058 -0.0183616 -0.0 0.0 0.0 -0.0 0.0 0.0 1.33885e-13 1.36602e-12 6.85807e-14 82.0393 23.1472 1.98241 -12.4608 -5.77697 22.5056 -0.00400819 1.79608 0.252508 -2.74857e-10 -1.88393e-10 -1.27878e-09 -4.79181e-10 -3.27378e-10 -2.20928e-09 -2.74849e-10 -1.88391e-10 -1.27879e-09 7.73091 5.47488 0.417314 -2.74854e-10 -1.88394e-10 -1.27878e-09 2.90554 0.965183 0.102902 -2.74849e-10 -1.88394e-10 -1.27878e-09 10.2786 0.731801 0.0259123 -2.74861e-10 -1.88394e-10 -1.27878e-09 2.22167 -0.733487 -0.20892 1.33787e-13 1.36601e-12 6.83943e-14 -78.2922 26.973 -2.36314 13.4746 -6.53846 -24.5022 0.828304 -24.928 3.74533 1.15513e-11 9.28598e-11 1.23121e-09 1.5165e-12 1.62858e-10 2.12732e-09 1.15472e-11 9.28593e-11 1.23122e-09 -7.73091 5.47488 -0.417314 1.15515e-11 9.28576e-11 1.2312e-09 -2.90554 0.965183 -0.102902 1.15437e-11 9.28591e-11 1.23121e-09 -10.2786 0.731801 -0.0259123 1.15563e-11 9.286e-11 1.23121e-09 -2.22167 -0.733487 0.20892 -2.03217e-16 0.0 -3.88251e-19 6.75999 -26.2817 -0.617105 -0.577607 46.0945 0.448834 -1.77907 -17.5606 -4.12052 2.03217e-16 0.0 3.88251e-19 -0.772477 -59.5413 4.22472 0.230672 31.8094 0.457729 0.520711 -3.31172 0.329772
64.8908 78.2795 -34.5792 -783.266 -85.8431 804.28 2.16367 30.5297 -1.30539 -2.55633 -9.00421 -0.467933 1.97731 16.2421 -0.354656 2.0964 -39.4532 -0.0802086 -0.0 0.0 0.0 -0.0 0.0 0.0 1.48558e-13 -1.47031e-13 2.56137e-14 81.8366 23.4674 2.16999 -12.4731 -5.78586 22.5295 -0.00404675 1.80722 0.254074 -9.59596e-11 2.767e-11 -2.55271e-09 -1.72791e-10 4.61128e-11 -4.41286e-09 -9.59538e-11 2.76705e-11 -2.55271e-09 7.73091 5.47488 0.417314 -9.59576e-11 2.76676e-11 -2.5527e-09 2.90554 0.965183 0.102902 -9.59522e-11 2.76678e-11 -2.5527e-09 10.2786 0.731801 0.0259123 -9.59637e-11 2.76667e-11 -2.5527e-09 2.22167 -0.733487 -0.20892 1.48486e-13 -1.47035e-13 2.54242e-14 -78.2615 27.0081 -2.58917 13.5971 -6.63399 -24.7468 0.84341 -25.1355 3.78096 1.41343e-11 -1.64367e-10 2.08478e-09 -5.40939e-12 -2.82962e-10 3.60175e-09 1.41326e-11 -1.64368e-10 2.08478e-09 -7.73091 5.47488 -0.417314 1.41359e-11 -1.64369e-10 2.08476e-09 -2.90554 0.965183 -0.102902 1.41311e-11 -1.64367e-10 2.08477e-09 -10.2786 0.731801 -0.0259123 1.41393e-11 -1.64366e-10 2.08477e-09 -2.22167 -0.733487 0.20892 -2.03217e-16 0.0 -3.88251e-19 6.57863 -26.717 -0.958034 -0.601441 46.8632 0.464829 -1.40037 -15.999 -3.36138 2.03217e-16 0.0 3.88251e-19 -0.0409283 -59.6855 5.38914 0.242292 32.3304 0.448076 0.439921 -2.84061 -0.553499
64.0606 78.3959 -34.5042 -782.754 -85.6575 804.083 2.42469 30.3792 -1.30156 -2.62576 -8.93457 -0.453346 1.97536 16.2454 -0.365181 2.01479 -39.4248 -0.129227 -0.0 0.0 0.0 -0.0 0.0 0.0 1.28846e-13 -1.02579e-12 -3.8266e-15 81.649 23.7089 2.34252 -12.5008 -5.80603 22.5833 -0.0042314 1.85704 0.261083 2.94074e-11 1.77497e-10 -3.24386e-09 4.22203e-11 3.05343e-10 -5.60863e-09 2.94122e-11 1.77497e-10 -3.24386e-09 7.73091 5.47488 0.417314 2.94091e-11 1.77494e-10 -3.24386e-09 2.90554 0.965183 0.102902 2.94145e-11 1.77494e-10 -3.24386e-09 10.2786 0.731801 0.0259123 2.94032e-11 1.77493e-10 -3.24385e-09 2.22167 -0.733487 -0.20892 1.28787e-13 -1.02579e-12 -4.02539e-15 -78.2603 27.081 -2.7507 13.7186 -6.72959 -24.9896 0.863077 -25.4062 3.82747 5.68127e-11 -2.9963e-10 2.5297e-09 6.2284e-11 -5.16875e-10 4.37111e-09 5.68119e-11 -2.99631e-10 2.5297e-09 -7.73091 5.47488 -0.417314 5.68147e-11 -2.99632e-10 2.52968e-09 -2.90554 0.965183 -0.102902 5.68118e-11 -2.99629e-10 2.52969e-09 -10.2786 0.731801 -0.0259123 5.68176e-11 -2.99628e-10 2.52969e-09 -2.22167 -0.733487 0.20892 -2.03217e-16 0.0 -3.88251e-19 6.29066 -27.2213 -1.26896 -0.63072 47.7677 0.487103 -1.09807 -14.3747 -2.72786 2.03217e-16 0.0 3.88251e-19 0.37106 -59.7451 6.12596 0.25259 32.8035 0.439746 0.388652 -2.43092 -1.21347
